<mxfile host="app.diagrams.net" modified="2024-04-29T17:50:39.709Z" agent="Mozilla/5.0 (X11; Ubuntu; Linux x86_64; rv:125.0) Gecko/20100101 Firefox/125.0" version="24.3.1" etag="m_hn7roTeUj0eCY_mgMZ" type="github">
  <diagram name="Page-1" id="cnX-aM7AjY0K3s4qXa8W">
    <mxGraphModel>
      <root>
        <mxCell id="0" />
        <mxCell id="1" parent="0" />
      </root>
    </mxGraphModel>
  </diagram>
</mxfile>
